<svg xmlns="http://www.w3.org/2000/svg" viewBox="0 0 538.07 651.32"><title>Asset 1</title><g id="Layer_2" data-name="Layer 2"><g id="Layer_1-2" data-name="Layer 1"><g id="Layer_2-2" data-name="Layer 2"><g id="Layer_1-2-2" data-name="Layer 1-2"><path d="M538.07,324.73c-.55.57-212.74,212.35-212.74,212.35-.36-.38-211.92-212-212.52-212.35,0,0,212.21-212.23,212.52-212.65h0C325.79,112.59,538.07,324.73,538.07,324.73ZM325.33,121.59,122.46,324.73l202.87,203,203.3-203Z"/><path d="M412.39,389.68l64.74-65-64.74-64.78-61,60.89-21.5-21.5,82.53-82.67L521.1,324.74,412.39,433.23c-28.9-28.94-144.49-144.55-173.31-173.35l-64.93,64.85c57.47,57.89,115.49,115.73,173.19,173.47l-21.73,21.67L130.49,324.73,239.09,216.44Z"/><path d="M242.93,386.32l57.52-57.52c.75.42,20,19.55,21.27,21.17l-57.58,57.58Z"/><polygon points="325.85 69.82 70.69 324.75 325.85 580.17 325.85 651.32 0 324.75 325.85 0 325.85 69.82"/></g></g></g></g></svg>