<svg xmlns="http://www.w3.org/2000/svg" viewBox="0 0 538.07 651.32"><title>Asset 1</title><g><g><g><g><path d="M538.07 324.73c-.55.57-212.74 212.35-212.74 212.35-.36-.38-211.92-212-212.52-212.35 0 0 212.22-212.23 212.53-212.65.46.5 212.74 212.65 212.74 212.65zM325.33 121.6L122.46 324.72l202.87 203 203.3-203zM412.4 389.68l64.73-65-64.74-64.78-61 60.9-21.5-21.5 82.52-82.68L521.1 324.74l-108.7 108.5c-28.9-28.95-144.5-144.56-173.32-173.36l-64.93 64.85c57.47 57.9 115.5 115.73 173.2 173.47l-21.74 21.67-195.1-195.14 108.6-108.3zM242.93 386.32l57.52-57.52c.75.42 20 19.55 21.27 21.17l-57.58 57.58zM325.85 69.82L70.7 324.75l255.15 255.42v71.15L0 324.75 325.85 0v69.82z"/></g></g></g></g></svg>