<svg xmlns="http://www.w3.org/2000/svg" viewBox="0 0 538.1 651.3"><defs><style>.cls-1{fill:#b2b2b2;}</style></defs><title>left-white</title><g id="Layer_2" data-name="Layer 2"><g id="Layer_1-2" data-name="Layer 1"><g id="Layer_2-2" data-name="Layer 2"><g id="Layer_1-2-2" data-name="Layer 1-2"><g id="Layer_2-2-2" data-name="Layer 2-2"><g id="Layer_1-2-2-2" data-name="Layer 1-2-2"><path class="cls-1" d="M538.1,324.7c-.5.6-212.7,212.4-212.7,212.4-.4-.4-211.9-212-212.5-212.4,0,0,212.2-212.2,212.5-212.6h0C325.8,112.6,538.1,324.7,538.1,324.7ZM325.3,121.6,122.5,324.7l202.9,203,203.3-203Z"/><path class="cls-1" d="M412.4,389.7l64.7-65-64.7-64.8-61,60.9-21.5-21.5,82.5-82.7L521.1,324.7,412.4,433.2c-28.9-28.9-144.5-144.6-173.3-173.4l-64.9,64.9c57.5,57.9,115.5,115.7,173.2,173.5l-21.7,21.7L130.5,324.7,239.1,216.4Z"/><path class="cls-1" d="M242.9,386.3l57.5-57.5c.8.4,20,19.5,21.3,21.2l-57.6,57.6Z"/><polygon class="cls-1" points="325.9 69.8 70.7 324.8 325.9 580.2 325.9 651.3 0 324.8 325.9 0 325.9 69.8"/></g></g></g></g></g></g></svg>