<svg xmlns="http://www.w3.org/2000/svg" viewBox="0 0 644.2 643.8"><title>Asset 1</title><g><g><path d="M644.2 322.1c-.8.9-322.3 321.7-322.3 321.7-.5-.6-321-321.1-321.9-321.7C0 322.1 321.5.6 321.9 0c.7.8 322.3 322.1 322.3 322.1zM321.9 14.4L14.6 322.1l307.3 307.6 308-307.6zM453.8 420.5l98.1-98.4-98.1-98.2-92.4 92.3-32.6-32.6 125-125.2 164.7 163.7-164.7 164.4c-43.8-43.8-218.9-219-262.5-262.6l-98.4 98.2c87.1 87.7 175 175.3 262.4 262.8l-32.9 32.9L26.8 322.1l164.5-164zM197.1 415.4l87.1-87.1c1.1.6 30.3 29.6 32.2 32.1l-87.2 87.2z"/></g></g></svg>