<svg xmlns="http://www.w3.org/2000/svg" viewBox="0 0 644.2 643.8"><title>Asset 1</title><g id="Layer_2" data-name="Layer 2"><g id="Layer_1-2" data-name="Layer 1"><path d="M644.2,322.1c-.8.9-322.3,321.7-322.3,321.7C321.4,643.2.9,322.7,0,322.1,0,322.1,321.5.6,321.9,0h0C322.6.8,644.2,322.1,644.2,322.1ZM321.9,14.4,14.6,322.1,321.9,629.7l308-307.6Z"/><path d="M453.8,420.5l98.1-98.4-98.1-98.2-92.4,92.3-32.6-32.6,125-125.2L618.5,322.1,453.8,486.5c-43.8-43.8-218.9-219-262.5-262.6L92.9,322.1c87.1,87.7,175,175.3,262.4,262.8l-32.9,32.9L26.8,322.1l164.5-164Z"/><path d="M197.1,415.4l87.1-87.1c1.1.6,30.3,29.6,32.2,32.1l-87.2,87.2Z"/></g></g></svg>