<svg xmlns="http://www.w3.org/2000/svg" viewBox="0 0 538.89 651.32"><title>Asset 1</title><g id="Layer_2" data-name="Layer 2"><g id="Layer_1-2" data-name="Layer 1"><g id="Layer_2-2" data-name="Layer 2"><g id="Layer_1-2-2" data-name="Layer 1-2"><path d="M425.26,324.73c-.55.57-212.74,212.35-212.74,212.35C212.16,536.72.6,325.13,0,324.73c0,0,212.21-212.23,212.52-212.65h0C213,112.59,425.26,324.73,425.26,324.73ZM212.52,121.59,9.65,324.73l202.87,203,203.3-203Z"/><path d="M299.58,389.68l64.74-65-64.74-64.78-61,60.89-21.5-21.5,82.53-82.67L408.29,324.74,299.58,433.23c-28.9-28.94-144.49-144.55-173.31-173.35L61.35,324.73c57.47,57.88,115.47,115.72,173.19,173.47l-21.73,21.67L17.68,324.73,126.28,216.44Z"/><path d="M130.12,386.32l57.52-57.52c.75.42,20,19.55,21.27,21.17l-57.58,57.58Z"/><polygon points="213.04 69.82 468.2 324.75 213.04 580.17 213.04 651.32 538.89 324.75 213.04 0 213.04 69.82"/></g></g></g></g></svg>