<svg xmlns="http://www.w3.org/2000/svg" viewBox="0 0 538.9 651.3"><defs><style>.cls-1{fill:#b2b2b2;}</style></defs><title>right-white</title><g id="Layer_2"><g id="Layer_1-2"><g id="Layer_2-2"><g id="Layer_1-2-2"><g id="Layer_2-2-2"><g id="Layer_1-2-2-2"><path d="M425.3 324.7c-.5.6-212.7 212.4-212.7 212.4-.4-.4-212-212-212.6-212.4 0 0 212.2-212.2 212.5-212.6zM212.5 121.6L9.6 324.7l202.9 203 203.3-203zM299.6 389.7l64.7-65-64.7-64.8-61 60.9-21.5-21.5 82.5-82.7 108.7 108.1-108.7 108.5c-28.9-28.9-144.5-144.6-173.3-173.4l-64.9 64.9c57.5 57.9 115.5 115.7 173.2 173.5l-21.7 21.7L17.7 324.7l108.6-108.3zM130.1 386.3l57.5-57.5c.8.4 20 19.5 21.3 21.2l-57.6 57.6zM213 69.8l255.2 255L213 580.2v71.1l325.9-326.5L213 0v69.8z" class="cls-1"/></g></g></g></g></g></g></svg>