<svg xmlns="http://www.w3.org/2000/svg" viewBox="0 0 538.9 651.3"><defs><style>.cls-1{fill:#b2b2b2;}</style></defs><title>right-white</title><g id="Layer_2" data-name="Layer 2"><g id="Layer_1-2" data-name="Layer 1"><g id="Layer_2-2" data-name="Layer 2"><g id="Layer_1-2-2" data-name="Layer 1-2"><g id="Layer_2-2-2" data-name="Layer 2-2"><g id="Layer_1-2-2-2" data-name="Layer 1-2-2"><path class="cls-1" d="M425.3,324.7c-.5.6-212.7,212.4-212.7,212.4-.4-.4-212-212-212.6-212.4,0,0,212.2-212.2,212.5-212.6h0ZM212.5,121.6,9.6,324.7l202.9,203,203.3-203Z"/><path class="cls-1" d="M299.6,389.7l64.7-65-64.7-64.8-61,60.9-21.5-21.5,82.5-82.7L408.3,324.7,299.6,433.2c-28.9-28.9-144.5-144.6-173.3-173.4L61.4,324.7c57.5,57.9,115.5,115.7,173.2,173.5l-21.7,21.7L17.7,324.7,126.3,216.4Z"/><path class="cls-1" d="M130.1,386.3l57.5-57.5c.8.4,20,19.5,21.3,21.2l-57.6,57.6Z"/><polygon class="cls-1" points="213 69.8 468.2 324.8 213 580.2 213 651.3 538.9 324.8 213 0 213 69.8"/></g></g></g></g></g></g></svg>