<svg xmlns="http://www.w3.org/2000/svg" viewBox="0 0 538.89 651.32"><title>Asset 1</title><g><g><g><g><path d="M425.26 324.73c-.55.57-212.74 212.35-212.74 212.35C212.16 536.72.6 325.13 0 324.73c0 0 212.2-212.23 212.52-212.65.48.5 212.74 212.65 212.74 212.65zM212.52 121.6L9.65 324.72l202.87 203 203.3-203zM299.58 389.68l64.74-65-64.74-64.78-61 60.9-21.5-21.5 82.53-82.68 108.7 108.12-108.72 108.5c-28.9-28.95-144.5-144.56-173.3-173.36l-64.93 64.85c57.47 57.88 115.47 115.72 173.2 173.47l-21.74 21.67L17.7 324.73l108.6-108.3zM130.12 386.32l57.52-57.52c.75.42 20 19.55 21.27 21.17l-57.57 57.58zM213.04 69.82L468.2 324.75 213.04 580.17v71.15L538.9 324.75 213.03 0v69.82z"/></g></g></g></g></svg>